<svg width="212" height="62" viewBox="0 0 212 62" fill="none" xmlns="http://www.w3.org/2000/svg">
<path d="M74.3704 19.4605C74.0039 19.4605 73.8003 19.6641 73.8003 20.0305V41.0804C73.8003 41.4468 74.0039 41.6504 74.3704 41.6504H77.9533C78.3197 41.6504 78.5233 41.4468 78.5233 41.0804V20.0305C78.5233 19.6641 78.3197 19.4605 77.9533 19.4605H74.3704ZM103.088 41.6504C103.454 41.6504 103.658 41.4468 103.658 41.0804V20.0305C103.658 19.6641 103.454 19.4605 103.088 19.4605H99.6272C99.2608 19.4605 99.0572 19.6641 99.0572 20.0305V27.8072L99.3422 34.6881L99.1386 34.7288L94.0085 27.4815L87.9012 19.7455C87.6976 19.542 87.4533 19.4605 87.1276 19.4605H83.9925C83.6261 19.4605 83.4225 19.6641 83.4225 20.0305V41.0804C83.4225 41.4468 83.6261 41.6504 83.9925 41.6504H87.4533C87.8198 41.6504 88.0234 41.4468 88.0234 41.0804V33.263L87.7383 26.4229L87.9419 26.3821L93.5606 34.3216L99.1386 41.3654C99.2608 41.569 99.4644 41.6504 99.7494 41.6504H103.088ZM117.224 19.1348C111.89 19.1348 108.022 21.6999 108.022 25.7307C108.022 30.3315 111.646 31.9601 117.102 32.408C121.214 32.7744 122.761 33.4666 122.761 35.0545C122.761 36.561 121.214 37.5789 117.794 37.5789C114.577 37.5789 112.46 36.8053 110.221 35.0545C109.936 34.8102 109.651 34.8509 109.407 35.1767L107.493 37.7417C107.249 38.0674 107.249 38.3524 107.534 38.556C110.465 40.9989 113.641 41.9761 117.712 41.9761C123.29 41.9761 127.443 39.411 127.443 34.9731C127.443 30.3315 123.331 28.4179 117.631 27.8886C113.926 27.5222 112.704 26.8707 112.704 25.5678C112.704 24.3057 114.211 23.5321 116.98 23.5321C119.789 23.5321 122.15 24.3464 123.983 25.8121C124.308 26.0971 124.593 26.0564 124.838 25.7714L126.873 23.2471C127.077 22.9621 127.036 22.7178 126.751 22.5142C124.145 20.3563 120.807 19.1348 117.224 19.1348ZM132.103 19.4605C131.737 19.4605 131.533 19.6641 131.533 20.0305V41.0804C131.533 41.4468 131.737 41.6504 132.103 41.6504H135.686C136.053 41.6504 136.256 41.4468 136.256 41.0804V20.0305C136.256 19.6641 136.053 19.4605 135.686 19.4605H132.103ZM145.879 23.9392H150.398C154.429 23.9392 157.035 26.4636 157.035 30.5351C157.035 34.6066 154.429 37.131 150.398 37.131H145.879V23.9392ZM141.726 19.4605C141.359 19.4605 141.156 19.6641 141.156 20.0305V41.0804C141.156 41.4468 141.359 41.6504 141.726 41.6504H150.398C156.709 41.6504 161.798 37.131 161.798 30.5351C161.798 24.0207 156.709 19.4605 150.398 19.4605H141.726ZM166.457 19.4605C166.172 19.4605 165.887 19.7048 165.887 20.0305V41.0804C165.887 41.4468 166.091 41.6504 166.457 41.6504H183.272C183.639 41.6504 183.842 41.4468 183.842 41.0804V37.7824C183.842 37.416 183.639 37.2124 183.272 37.2124H170.61V32.408H181.44C181.807 32.408 182.01 32.2044 182.01 31.838V28.5808C182.01 28.2143 181.807 28.0108 181.44 28.0108H170.61V23.8578H182.947C183.313 23.8578 183.517 23.6542 183.517 23.2878V20.0305C183.517 19.6641 183.313 19.4605 182.947 19.4605H166.457ZM188.882 19.4605C188.516 19.4605 188.312 19.6641 188.312 20.0305V41.0804C188.312 41.4468 188.516 41.6504 188.882 41.6504H192.465C192.832 41.6504 193.035 41.4468 193.035 41.0804V35.7467H198.735C198.898 35.7467 199.102 35.7467 199.387 35.706L202.115 41.2432C202.278 41.5282 202.522 41.6504 202.848 41.6504H206.838C207.163 41.6504 207.367 41.3654 207.204 41.0804L203.703 34.3623C206.023 33.0187 207.611 30.4944 207.611 27.5629C207.611 22.9621 203.825 19.4605 198.898 19.4605H188.882ZM193.035 31.268V23.9392H198.898C201.463 23.9392 202.888 25.4864 202.888 27.5629C202.888 29.6394 201.463 31.268 198.898 31.268H193.035Z" fill="black"/>
<path fill-rule="evenodd" clip-rule="evenodd" d="M39.6557 48.8557L21.3027 48.8434C21.1871 47.6207 24.2136 38.1912 25.9445 32.7595C28.9353 33.9087 32.1926 34.0117 35.1004 32.7014C36.7296 38.098 39.5621 47.4723 39.6557 48.8557ZM25.8189 28.7036C24.6197 27.9867 23.5947 27.2683 22.5764 25.5677C18.7412 19.1636 23.5488 11.2351 30.7669 11.4078C37.7761 11.5755 42.1954 19.2009 38.6117 25.4354C37.502 27.3661 36.4221 28.0842 34.5202 29.1702C31.586 30.4237 28.6132 30.094 25.8189 28.7036ZM27.3986 0.183002C11.1398 1.96452 -1.59227 16.0197 0.161819 33.8587C1.70784 49.5839 16.3565 62.9798 33.8994 60.9185C49.9449 59.0332 62.75 45.0716 60.9409 27.1211C59.3625 11.4636 44.7494 -1.71808 27.3986 0.183002Z" fill="black"/>
</svg>
